<svg preserveAspectRatio="none" width="100%" height="100%" overflow="visible" style="display: block;" viewBox="0 0 232.5 232.5" fill="none" xmlns="http://www.w3.org/2000/svg">
<g id="Group">
<path id="Vector" fill-rule="evenodd" clip-rule="evenodd" d="M116.251 22.5C115.569 22.5 114.888 22.5075 114.208 22.5225C111.224 22.5876 108.338 21.4651 106.182 19.4017C104.027 17.3383 102.779 14.5032 102.714 11.52C102.649 8.53681 103.771 5.64993 105.835 3.49443C107.898 1.33894 110.733 0.0913937 113.716 0.0262499C114.556 0.00874989 115.401 0 116.251 0C119.235 0 122.097 1.18526 124.206 3.29505C126.316 5.40483 127.501 8.26631 127.501 11.25C127.501 14.2337 126.316 17.0952 124.206 19.205C122.097 21.3147 119.235 22.5 116.251 22.5ZM88.6814 14.31C89.2172 15.6871 89.4764 17.1563 89.4443 18.6337C89.4122 20.111 89.0894 21.5676 88.4942 22.9201C87.8991 24.2727 87.0433 25.4947 85.9758 26.5165C84.9083 27.5382 83.6499 28.3397 82.2726 28.875C81.0014 29.3687 79.7411 29.8901 78.4926 30.4388C77.139 31.0422 75.6795 31.3723 74.1979 31.41C72.7164 31.4477 71.2419 31.1923 69.8594 30.6585C68.4768 30.1246 67.2134 29.3228 66.1416 28.2992C65.0698 27.2756 64.2109 26.0503 63.6141 24.6937C63.0173 23.3371 62.6945 21.876 62.6641 20.3942C62.6337 18.9125 62.8964 17.4394 63.4371 16.0595C63.9778 14.6795 64.7858 13.4201 65.8147 12.3534C66.8436 11.2867 68.0731 10.4338 69.4326 9.84375C70.9813 9.16454 72.5442 8.51815 74.1201 7.905C76.9005 6.82385 79.9964 6.89125 82.727 8.09236C85.4577 9.29348 87.5995 11.53 88.6814 14.31ZM51.7701 32.625C52.7919 33.6923 53.5933 34.9505 54.1288 36.3276C54.6642 37.7047 54.9231 39.1738 54.8907 40.651C54.8583 42.1282 54.5353 43.5845 53.94 44.9368C53.3447 46.2891 52.4889 47.511 51.4214 48.5325C50.4367 49.4751 49.4728 50.4391 48.5301 51.4237C46.4606 53.5516 43.634 54.7754 40.6662 54.8284C37.6984 54.8814 34.8299 53.7594 32.6857 51.7067C30.5415 49.6541 29.2955 46.8372 29.219 43.8699C29.1426 40.9026 30.242 38.0253 32.2776 35.865C33.4464 34.6441 34.6417 33.4488 35.8626 32.28C36.9297 31.258 38.1877 30.4563 39.5647 29.9205C40.9416 29.3848 42.4107 29.1255 43.8879 29.1576C45.365 29.1896 46.8214 29.5123 48.1739 30.1073C49.5263 30.7022 50.7484 31.5577 51.7701 32.625ZM24.6764 63.6675C27.4068 64.8697 29.5478 67.1071 30.6287 69.8877C31.7096 72.6683 31.6418 75.7644 30.4401 78.495C29.8915 79.7435 29.3701 81.0038 28.8764 82.275C28.3408 83.6519 27.5393 84.9099 26.5176 85.977C25.4959 87.0442 24.274 87.8996 22.9217 88.4946C21.5694 89.0895 20.1132 89.4122 18.6361 89.4444C17.1591 89.4765 15.6902 89.2174 14.3133 88.6819C12.9364 88.1463 11.6784 87.3448 10.6113 86.3231C9.54411 85.3014 8.68864 84.0795 8.09371 82.7272C7.49877 81.3749 7.17603 79.9187 7.14389 78.4416C7.11175 76.9646 7.37084 75.4957 7.90639 74.1187C8.51847 72.5423 9.16488 70.9795 9.84514 69.4312C11.0473 66.7009 13.2847 64.5598 16.0653 63.4789C18.846 62.398 21.9458 62.4659 24.6764 63.6675ZM11.5214 102.712C12.9985 102.745 14.4549 103.067 15.8073 103.663C17.1597 104.258 18.3816 105.113 19.4033 106.18C20.425 107.248 21.2265 108.506 21.7619 109.883C22.2973 111.26 22.5563 112.729 22.5239 114.206C22.4942 115.569 22.4942 116.931 22.5239 118.294C22.5561 119.771 22.2971 121.24 21.7617 122.617C21.2262 123.994 20.4248 125.252 19.4031 126.319C18.3814 127.387 17.1595 128.242 15.8072 128.837C14.4548 129.432 12.9985 129.755 11.5214 129.788C10.0443 129.82 8.57525 129.561 7.19822 129.025C5.8212 128.49 4.56312 127.688 3.49582 126.667C2.42853 125.645 1.57292 124.423 0.977853 123.071C0.382781 121.718 0.0598989 120.262 0.027643 118.785C-0.00921432 117.095 -0.00921432 115.405 0.027643 113.715C0.0597936 112.238 0.382603 110.781 0.977638 109.429C1.57267 108.077 2.42828 106.855 3.4956 105.833C4.56291 104.811 5.82103 104.01 7.1981 103.475C8.57518 102.939 10.0442 102.68 11.5214 102.712ZM14.3151 143.82C17.0959 142.739 20.1923 142.807 22.923 144.009C25.6537 145.211 27.7952 147.448 28.8764 150.229C29.3701 151.5 29.8915 152.76 30.4401 154.009C31.0436 155.362 31.3737 156.822 31.4114 158.303C31.4491 159.785 31.1937 161.259 30.6598 162.642C30.126 164.025 29.3242 165.288 28.3006 166.36C27.277 167.432 26.0517 168.291 24.6951 168.887C23.3385 169.484 21.8774 169.807 20.3956 169.837C18.9139 169.868 17.4407 169.605 16.0608 169.064C14.6809 168.524 13.4215 167.716 12.3548 166.687C11.2881 165.658 10.4352 164.428 9.84514 163.069C9.16594 161.52 8.51954 159.957 7.90639 158.381C6.82524 155.601 6.89264 152.505 8.09376 149.774C9.29488 147.044 11.5314 144.902 14.3114 143.82M32.6189 180.731C33.6862 179.71 34.9444 178.908 36.3215 178.373C37.6986 177.837 39.1677 177.578 40.6449 177.611C42.1221 177.643 43.5784 177.966 44.9307 178.561C46.283 179.157 47.5049 180.012 48.5264 181.08C49.469 182.065 50.433 183.029 51.4176 183.971C53.5455 186.041 54.7693 188.867 54.8223 191.835C54.8753 194.803 53.7533 197.672 51.7006 199.816C49.648 201.96 46.8311 203.206 43.8638 203.282C40.8965 203.359 38.0192 202.259 35.8589 200.224C34.638 199.055 33.4427 197.86 32.2739 196.639C31.2519 195.572 30.4502 194.314 29.9144 192.937C29.3787 191.56 29.1194 190.091 29.1514 188.614C29.1835 187.136 29.5062 185.68 30.1011 184.327C30.6961 182.975 31.5516 181.753 32.6189 180.731ZM63.6614 207.829C64.8628 205.098 67.1 202.956 69.8807 201.874C72.6614 200.793 75.7578 200.86 78.4889 202.061C79.7374 202.61 80.9977 203.131 82.2689 203.625C85.0497 204.707 87.2869 206.849 88.4885 209.58C89.69 212.311 89.7573 215.407 88.6758 218.188C87.5942 220.969 85.4522 223.206 82.7211 224.408C79.99 225.609 76.8934 225.677 74.1126 224.595C72.5362 223.983 70.9734 223.337 69.4251 222.656C66.6948 221.454 64.5537 219.217 63.4728 216.436C62.3919 213.655 62.4598 210.559 63.6614 207.829ZM102.71 220.98C102.742 219.503 103.065 218.046 103.66 216.694C104.255 215.342 105.111 214.12 106.178 213.098C107.245 212.076 108.504 211.275 109.881 210.739C111.258 210.204 112.727 209.945 114.204 209.978C114.886 209.993 115.569 210 116.251 210C119.235 210 122.097 211.185 124.206 213.295C126.316 215.405 127.501 218.266 127.501 221.25C127.501 224.234 126.316 227.095 124.206 229.205C122.097 231.315 119.235 232.5 116.251 232.5C115.406 232.5 114.561 232.492 113.716 232.474C112.239 232.442 110.783 232.119 109.43 231.524C108.078 230.929 106.856 230.073 105.834 229.006C104.813 227.938 104.011 226.68 103.476 225.303C102.94 223.926 102.678 222.457 102.71 220.98Z" fill="var(--fill-0, white)"/>
<path id="Vector_2" fill-rule="evenodd" clip-rule="evenodd" d="M105 11.25C105 8.26631 106.185 5.40483 108.295 3.29505C110.405 1.18526 113.266 0 116.25 0C147.081 4.59424e-07 176.65 12.2477 198.451 34.0488C220.252 55.8499 232.5 85.4186 232.5 116.25C232.5 147.081 220.252 176.65 198.451 198.451C176.65 220.252 147.081 232.5 116.25 232.5C113.266 232.5 110.405 231.315 108.295 229.205C106.185 227.095 105 224.234 105 221.25C105 218.266 106.185 215.405 108.295 213.295C110.405 211.185 113.266 210 116.25 210C141.114 210 164.96 200.123 182.541 182.541C200.123 164.96 210 141.114 210 116.25C210 91.386 200.123 67.5403 182.541 49.9587C164.96 32.3772 141.114 22.5 116.25 22.5C113.266 22.5 110.405 21.3147 108.295 19.205C106.185 17.0952 105 14.2337 105 11.25Z" fill="var(--fill-0, white)"/>
<path id="Vector_3" d="M153.742 109.666C158.954 112.508 158.954 119.993 153.742 122.836L94.4017 155.198C89.4067 157.928 83.313 154.31 83.313 148.617V83.8846C83.313 78.1921 89.4067 74.5733 94.4017 77.2996L153.742 109.666Z" fill="var(--fill-0, white)"/>
</g>
</svg>
