<svg preserveAspectRatio="none" width="100%" height="100%" overflow="visible" style="display: block;" viewBox="0 0 84.8806 84.8806" fill="none" xmlns="http://www.w3.org/2000/svg">
<g id="Icon" opacity="0.5">
<path id="Vector" d="M42.4402 10.61V14.1468M42.4402 70.7338V74.2705M74.2704 42.4403H70.7337M14.1467 42.4403H10.61M64.9477 64.9478L62.4472 62.4473M22.4332 22.4332L19.9326 19.9327M64.9477 19.9327L62.4472 22.4332M22.4332 62.4473L19.9326 64.9478M56.587 42.4403C56.587 46.1923 55.0966 49.7905 52.4435 52.4436C49.7905 55.0966 46.1922 56.5871 42.4402 56.5871C38.6882 56.5871 35.0899 55.0966 32.4369 52.4436C29.7838 49.7905 28.2934 46.1923 28.2934 42.4403C28.2934 38.6883 29.7838 35.09 32.4369 32.437C35.0899 29.7839 38.6882 28.2935 42.4402 28.2935C46.1922 28.2935 49.7905 29.7839 52.4435 32.437C55.0966 35.09 56.587 38.6883 56.587 42.4403Z" stroke="var(--stroke-0, white)" stroke-width="7.07338" stroke-linecap="round" stroke-linejoin="round"/>
</g>
</svg>
