<svg preserveAspectRatio="none" width="100%" height="100%" overflow="visible" style="display: block;" viewBox="0 0 15.5 15.5" fill="none" xmlns="http://www.w3.org/2000/svg">
<g id="Group">
<path id="Vector" d="M7.75 0.75C3.8839 0.75 0.75 3.8839 0.75 7.75C0.75 11.6161 3.8839 14.75 7.75 14.75C11.6161 14.75 14.75 11.6161 14.75 7.75C14.75 3.8839 11.6161 0.75 7.75 0.75Z" stroke="var(--stroke-0, white)" stroke-width="1.5" stroke-linecap="round" stroke-linejoin="round"/>
<path id="Vector_2" d="M2.33984 12.1923C2.33984 12.1923 3.90014 10.2001 7.75014 10.2001C11.6001 10.2001 13.1611 12.1923 13.1611 12.1923M7.75014 7.75006C8.3071 7.75006 8.84124 7.52881 9.23507 7.13499C9.62889 6.74116 9.85014 6.20702 9.85014 5.65006C9.85014 5.09311 9.62889 4.55897 9.23507 4.16514C8.84124 3.77131 8.3071 3.55006 7.75014 3.55006C7.19319 3.55006 6.65905 3.77131 6.26522 4.16514C5.87139 4.55897 5.65014 5.09311 5.65014 5.65006C5.65014 6.20702 5.87139 6.74116 6.26522 7.13499C6.65905 7.52881 7.19319 7.75006 7.75014 7.75006Z" stroke="var(--stroke-0, white)" stroke-width="1.5" stroke-linecap="round" stroke-linejoin="round"/>
</g>
</svg>
