<svg preserveAspectRatio="none" width="100%" height="100%" overflow="visible" style="display: block;" viewBox="0 0 32 32" fill="none" xmlns="http://www.w3.org/2000/svg">
<g id="logomark">
<path id="Icon" d="M29.3333 22.6667V17.3333C29.3333 9.96954 23.3638 4 16 4C8.6362 4 2.66667 9.96954 2.66667 17.3333V22.6667M10 28C8.15905 28 6.66667 26.5076 6.66667 24.6667V20.6667C6.66667 18.8257 8.15905 17.3333 10 17.3333C11.8409 17.3333 13.3333 18.8257 13.3333 20.6667V24.6667C13.3333 26.5076 11.8409 28 10 28ZM22 28C20.1591 28 18.6667 26.5076 18.6667 24.6667V20.6667C18.6667 18.8257 20.1591 17.3333 22 17.3333C23.8409 17.3333 25.3333 18.8257 25.3333 20.6667V24.6667C25.3333 26.5076 23.8409 28 22 28Z" stroke="var(--stroke-0, white)" stroke-width="3" stroke-linecap="round" stroke-linejoin="round"/>
</g>
</svg>
