<svg preserveAspectRatio="none" width="100%" height="100%" overflow="visible" style="display: block;" viewBox="0 0 20 20" fill="none" xmlns="http://www.w3.org/2000/svg">
<g id="Icon" clip-path="url(#clip0_290_830)">
<path id="Vector" d="M9.91669 10.0833L13.6784 6.32167" stroke="var(--stroke-0, #CAD5E2)" stroke-width="1.66667" stroke-linecap="round" stroke-linejoin="round"/>
<path id="Vector_2" d="M16.75 1.91666C16.5942 1.76397 16.3848 1.67844 16.1667 1.67844C15.9485 1.67844 15.7391 1.76397 15.5833 1.91666L14.655 2.84499C14.3424 3.15748 14.1668 3.58133 14.1667 4.02332V5.14332C14.1666 5.58531 13.9909 6.00917 13.6783 6.32166C13.9908 6.00907 14.4147 5.83342 14.8567 5.83332H15.9767C16.4187 5.83323 16.8425 5.65757 17.155 5.34499L18.0833 4.41666C18.236 4.26088 18.3215 4.05145 18.3215 3.83332C18.3215 3.6152 18.236 3.40576 18.0833 3.24999L16.75 1.91666Z" stroke="var(--stroke-0, #CAD5E2)" stroke-width="1.66667" stroke-linecap="round" stroke-linejoin="round"/>
<path id="Vector_3" d="M5 13.3333L6.66667 15" stroke="var(--stroke-0, #CAD5E2)" stroke-width="1.66667" stroke-linecap="round" stroke-linejoin="round"/>
<path id="Vector_4" d="M6.85833 8.20833C7.04771 7.75204 7.36804 7.36208 7.77888 7.0877C8.18971 6.81331 8.67263 6.6668 9.16667 6.66667C10.2717 6.66667 11.3315 7.10565 12.1129 7.88705C12.8943 8.66846 13.3333 9.72826 13.3333 10.8333C13.3332 11.3274 13.1867 11.8103 12.9123 12.2211C12.6379 12.632 12.248 12.9523 11.7917 13.1417L11.025 13.4583C10.7209 13.5852 10.4612 13.7994 10.2788 14.0738C10.0963 14.3482 9.99931 14.6705 10 15C10 15.8841 9.64881 16.7319 9.02369 17.357C8.39857 17.9821 7.55072 18.3333 6.66667 18.3333C5.34058 18.3333 4.06881 17.8066 3.13113 16.8689C2.19345 15.9312 1.66667 14.6594 1.66667 13.3333C1.66667 12.4493 2.01786 11.6014 2.64298 10.9763C3.2681 10.3512 4.11595 10 5 10C5.32951 10.0007 5.65184 9.90368 5.92624 9.72124C6.20064 9.5388 6.4148 9.27912 6.54167 8.975L6.85833 8.20833Z" stroke="var(--stroke-0, #CAD5E2)" stroke-width="1.66667" stroke-linecap="round" stroke-linejoin="round"/>
</g>
<defs>
<clipPath id="clip0_290_830">
<rect width="20" height="20" fill="white"/>
</clipPath>
</defs>
</svg>
