<svg preserveAspectRatio="none" width="100%" height="100%" overflow="visible" style="display: block;" viewBox="0 0 14 14" fill="none" xmlns="http://www.w3.org/2000/svg">
<path id="Vector" d="M3.68476 2.33288V11.2295C3.34978 11.1393 2.97681 11.0846 2.57967 11.0846C1.15688 11.0846 0 11.7382 0 12.5423C0 13.3491 1.15343 14 2.57967 14C4.00247 14 5.15935 13.3464 5.15935 12.5423C5.15935 12.4438 5.14208 12.3454 5.10755 12.2497H5.15935V4.91737L12.5254 3.25181V9.48193C12.1904 9.39168 11.8175 9.33698 11.4203 9.33698C9.99753 9.33698 8.84065 9.99062 8.84065 10.7947C8.84065 11.6015 9.99408 12.2524 11.4203 12.2524C12.8431 12.2524 14 11.5988 14 10.7947C14 10.7017 13.9827 10.6114 13.9517 10.5212L14 10.5021V0L3.68476 2.33288Z" fill="var(--fill-0, white)"/>
</svg>
