<svg preserveAspectRatio="none" width="100%" height="100%" overflow="visible" style="display: block;" viewBox="0 0 20 20" fill="none" xmlns="http://www.w3.org/2000/svg">
<g id="Icon" clip-path="url(#clip0_290_850)">
<path id="Vector" d="M15.4167 6.66667C14.25 6.66667 13.25 6.00001 12.75 5.00001C12.2767 3.68721 11.3401 2.59251 10.1164 1.92169C8.89265 1.25087 7.46604 1.05013 6.10471 1.3572C4.74338 1.66426 3.54109 2.45799 2.72383 3.58918C1.90658 4.72037 1.53064 6.11112 1.66669 7.50001V16.6667C1.66669 17.1087 1.84228 17.5326 2.15484 17.8452C2.4674 18.1577 2.89132 18.3333 3.33335 18.3333H16.6667C17.1087 18.3333 17.5326 18.1577 17.8452 17.8452C18.1578 17.5326 18.3334 17.1087 18.3334 16.6667V9.58334C18.3334 8.00001 17 6.66667 15.4167 6.66667Z" stroke="var(--stroke-0, #CAD5E2)" stroke-width="1.66667" stroke-linecap="round" stroke-linejoin="round"/>
<path id="Vector_2" d="M1.66667 11.6667H18.3333" stroke="var(--stroke-0, #CAD5E2)" stroke-width="1.66667" stroke-linecap="round" stroke-linejoin="round"/>
<path id="Vector_3" d="M5 11.6667V15" stroke="var(--stroke-0, #CAD5E2)" stroke-width="1.66667" stroke-linecap="round" stroke-linejoin="round"/>
<path id="Vector_4" d="M8.33333 11.6667V15" stroke="var(--stroke-0, #CAD5E2)" stroke-width="1.66667" stroke-linecap="round" stroke-linejoin="round"/>
<path id="Vector_5" d="M11.6667 11.6667V15" stroke="var(--stroke-0, #CAD5E2)" stroke-width="1.66667" stroke-linecap="round" stroke-linejoin="round"/>
<path id="Vector_6" d="M15 11.6667V15" stroke="var(--stroke-0, #CAD5E2)" stroke-width="1.66667" stroke-linecap="round" stroke-linejoin="round"/>
</g>
<defs>
<clipPath id="clip0_290_850">
<rect width="20" height="20" fill="white"/>
</clipPath>
</defs>
</svg>
