<svg preserveAspectRatio="none" width="100%" height="100%" overflow="visible" style="display: block;" viewBox="0 0 20 20" fill="none" xmlns="http://www.w3.org/2000/svg">
<g id="Icon">
<path id="Vector" d="M13.5392 6.4675C14.475 7.40494 15.0006 8.6754 15.0006 10C15.0006 11.3246 14.475 12.5951 13.5392 13.5325" stroke="var(--stroke-0, #0000FF)" stroke-width="1.66667" stroke-linecap="round" stroke-linejoin="round"/>
<path id="Vector_2" d="M15.8958 4.11083C17.4566 5.67336 18.3332 7.79152 18.3332 10C18.3332 12.2085 17.4566 14.3266 15.8958 15.8892" stroke="var(--stroke-0, #0000FF)" stroke-width="1.66667" stroke-linecap="round" stroke-linejoin="round"/>
<path id="Vector_3" d="M4.10416 15.8892C2.54343 14.3266 1.66677 12.2085 1.66677 10C1.66677 7.79152 2.54343 5.67336 4.10416 4.11083" stroke="var(--stroke-0, #0000FF)" stroke-width="1.66667" stroke-linecap="round" stroke-linejoin="round"/>
<path id="Vector_4" d="M6.46082 13.5325C5.525 12.5951 4.99939 11.3246 4.99939 10C4.99939 8.6754 5.525 7.40494 6.46082 6.4675" stroke="var(--stroke-0, #0000FF)" stroke-width="1.66667" stroke-linecap="round" stroke-linejoin="round"/>
<path id="Vector_5" d="M10 11.6667C10.9205 11.6667 11.6667 10.9205 11.6667 10C11.6667 9.07953 10.9205 8.33333 10 8.33333C9.07953 8.33333 8.33333 9.07953 8.33333 10C8.33333 10.9205 9.07953 11.6667 10 11.6667Z" stroke="var(--stroke-0, #0000FF)" stroke-width="1.66667" stroke-linecap="round" stroke-linejoin="round"/>
</g>
</svg>
